{"title":"Madonna Sticky and Sweet live in Buenos Aires h264 PeSoberbo HD.","uid":4992576,"size":842439933,"categoryP":"video","categoryS":"music_videos","magnet":"?xt=urn:btih:1c7e8f4c1e4b01e84a6a3f3823d9043de778a572&amp;dn=Madonna+Sticky+and+Sweet+live+in+Buenos+Aires+h264+PeSoberbo+HD.&amp;tr=udp%3A%2F%2Ftracker.openbittorrent.com%3A80&amp;tr=udp%3A%2F%2Fopen.demonii.com%3A1337&amp;tr=udp%3A%2F%2Ftracker.coppersurfer.tk%3A6969&amp;tr=udp%3A%2F%2Fexodus.desync.com%3A6969","seeders":0,"leechers":1,"uploader":"pesoberbo","files":-1,"time":1247119899,"description":"Madonna Sticky and Sweet Tour live in Buenos Aires\n\n\n   Video #1\n      Format : AVC\n      Format/Info : Advanced Video Codec\n      Format profile : &lt;a class=&quot;__cf_email__&quot; href=&quot;/cdn-cgi/l/email-protection&quot; data-cfemail=&quot;8ac7ebe3e4cac6b9a4ba&quot;&gt;[email&amp;#160;protected]&lt;/a&gt;&lt;script cf-hash='f9e31' type=&quot;text/javascript&quot;&gt;\n/* &lt;![CDATA[ */!function(){try{var t=&quot;currentScript&quot;in document?document.currentScript:function(){for(var t=document.getElementsByTagName(&quot;script&quot;),e=t.length;e--;)if(t[e].getAttribute(&quot;cf-hash&quot;))return t[e]}();if(t&amp;&amp;t.previousSibling){var e,r,n,i,c=t.previousSibling,a=c.getAttribute(&quot;data-cfemail&quot;);if(a){for(e=&quot;&quot;,r=parseInt(a.substr(0,2),16),n=2;a.length-n;n+=2)i=parseInt(a.substr(n,2),16)^r,e+=String.fromCharCode(i);e=document.createTextNode(e),c.parentNode.replaceChild(e,c)}}}catch(u){}}();/* ]]&gt; */&lt;/script&gt;\n      Format settings, CABAC : Yes\n      Format settings, ReFrames : 2 frames\n      Codec ID : avc1\n      Codec ID/Info : Advanced Video Coding\n      Duration : 1h 52mn\n      Bit rate mode : Variable\n      Bit rate : 806 Kbps\n      Nominal bit rate : 800 Kbps\n      Maximum bit rate : 3 328 Kbps\n      Width : 624 pixels\n      Height : 352 pixels\n      Display aspect ratio : 16/9\n      Frame rate mode : Constant\n      Frame rate : 25.000 fps\n      Resolution : 24 bits\n      Colorimetry : 4:2:0\n      Scan type : Progressive\n      Bits/(Pixel*Frame) : 0.147\n      Stream size : 648 MiB (81%)\n      Writing library : x264 core 67 r1163 3f56e27\n      \n\n   Audio #2\n      Format : MPEG Audio\n      Format version : Version 1\n      Format profile : Layer 3\n      Codec ID : 6B\n      Duration : 1h 52mn\n      Bit rate mode : Constant\n      Bit rate : 192 Kbps\n      Minimum bit rate : 192 Kbps\n      Maximum bit rate : 198 Kbps\n      Channel(s) : 2 channels\n      Sampling rate : 48.0 KHz\n      Resolution : 16 bits\n      Stream size : 154 MiB (19%)\n      Writing library : LAME3.98r\n      Encoding settings : CBR\n   \nSample\n\nrapid share.com/ files/253634786/ mad_buenos_aires_pesoberbo_Teaser.mp4\n\nImg &lt;a href=&quot;\nhttp://img509.imageshack.us/img509/5867/madonnastickyandsweetli.jpg&quot; rel=&quot;nofollow&quot; target=&quot;_NEW&quot;&gt;\nhttp://img509.imageshack.us/img509/5867/madonnastickyandsweetli.jpg&lt;/a&gt;\nhttp://img12.imageshack.us/img12/5867/madonnastickyandsweetli.jpg\nhttp://img33.imageshack.us/img33/5867/madonnastickyandsweetli.jpg\nhttp://img528.imageshack.us/img528/5867/madonnastickyandsweetli.jpg\nhttp://img17.imageshack.us/img17/5867/madonnastickyandsweetli.jpg\nhttp://img19.imageshack.us/img19/5867/madonnastickyandsweetli.jpg\nhttp://img22.imageshack.us/img22/5867/madonnastickyandsweetli.jpg\nhttp://img29.imageshack.us/img29/5867/madonnastickyandsweetli.jpg\nhttp://img33.imageshack.us/img33/9069/madonnastickyandsweetlid.jpg\nhttp://img40.imageshack.us/img40/5867/madonnastickyandsweetli.jpg\nhttp://img43.imageshack.us/img43/5867/madonnastickyandsweetli.jpg\nhttp://img190.imageshack.us/img190/5867/madonnastickyandsweetli.jpg\nhttp://img191.imageshack.us/img191/5867/madonnastickyandsweetli.jpg\nhttp://img268.imageshack.us/img268/5867/madonnastickyandsweetli.jpg\nhttp://img25.imageshack.us/img25/5867/madonnastickyandsweetli.jpg\nhttp://img509.imageshack.us/img509/1491/madonnastickyandsweetlie.jpg\nhttp://img189.imageshack.us/img189/5867/madonnastickyandsweetli.jpg\nhttp://img245.imageshack.us/img245/5867/madonnastickyandsweetli.jpg\nhttp://img179.imageshack.us/img179/5867/madonnastickyandsweetli.jpg\nhttp://img200.imageshack.us/img200/5867/madonnastickyandsweetli.jpg\n\n\n\n\n\n\n\n\n","torrent":{"xt":"urn:btih:1c7e8f4c1e4b01e84a6a3f3823d9043de778a572","amp;dn":"Madonna+Sticky+and+Sweet+live+in+Buenos+Aires+h264+PeSoberbo+HD.","amp;tr":["udp%3A%2F%2Ftracker.openbittorrent.com%3A80","udp%3A%2F%2Fopen.demonii.com%3A1337","udp%3A%2F%2Ftracker.coppersurfer.tk%3A6969","udp%3A%2F%2Fexodus.desync.com%3A6969"],"infoHash":"1c7e8f4c1e4b01e84a6a3f3823d9043de778a572","infoHashBuffer":{"type":"Buffer","data":[28,126,143,76,30,75,1,232,74,106,63,56,35,217,4,61,231,120,165,114]},"announce":[],"urlList":[]}}